<?xml version="1.0" encoding="UTF-8" standalone="no"?>
<svg
   xmlns:dc="http://purl.org/dc/elements/1.1/"
   xmlns:cc="http://creativecommons.org/ns#"
   xmlns:rdf="http://www.w3.org/1999/02/22-rdf-syntax-ns#"
   xmlns:svg="http://www.w3.org/2000/svg"
   xmlns="http://www.w3.org/2000/svg"
   id="svg9"
   version="1.1"
   xml:space="preserve"
   style="enable-background:new 0 0 132.542 32.375;"
   viewBox="0 0 132.542 32.375"
   height="44px"
   width="180px"><metadata
     id="metadata15"><rdf:RDF><cc:Work
         rdf:about=""><dc:format>image/svg+xml</dc:format><dc:type
           rdf:resource="http://purl.org/dc/dcmitype/StillImage" /></cc:Work></rdf:RDF></metadata><defs
     id="defs13" /><path
     d="M37.853,20.865c0.539-0.58,1.446-0.612,2.026-0.072c0.579,0.539,0.612,1.445,0.072,2.025                             c-0.899,0.967-1.998,1.75-3.229,2.287c-1.191,0.52-2.499,0.807-3.866,0.807c-2.678,0-5.103-1.086-6.857-2.84                             c-1.755-1.756-2.84-4.18-2.84-6.857c0-2.677,1.085-5.102,2.84-6.857s4.18-2.84,6.857-2.84c2.677,0,5.102,1.085,6.856,2.84                             c1.755,1.755,2.841,4.18,2.841,6.857c0,0.794-0.644,1.438-1.438,1.438H29.88c-0.793,0-1.437-0.644-1.437-1.438                             s0.643-1.437,1.437-1.437h9.648c-0.28-1.308-0.935-2.476-1.847-3.388c-1.234-1.235-2.94-1.998-4.824-1.998                             c-1.885,0-3.591,0.764-4.825,1.998c-1.234,1.234-1.998,2.941-1.998,4.825c0,1.885,0.764,3.59,1.998,4.825                             c1.234,1.233,2.94,1.999,4.825,1.999c0.975,0,1.895-0.2,2.722-0.561C36.443,22.102,37.216,21.549,37.853,20.865L37.853,20.865z"
     class="st1"
     id="logo-e1" /><path
     d="M21.19,16.15v0.02l0,0v0.001v0.044c0,2.678-1.086,5.102-2.841,6.857c-1.755,1.754-4.18,2.84-6.856,2.84                             c-2.677,0-5.102-1.086-6.856-2.84c-1.755-1.756-2.841-4.18-2.841-6.857c0-2.677,1.086-5.102,2.841-6.857                             c1.755-1.755,4.18-2.84,6.856-2.84v0.005l3.473,0.004c0.79,0,1.431,0.641,1.431,1.431S15.756,9.39,14.966,9.39l-3.473-0.004v0.006                             c-1.884,0-3.59,0.764-4.824,1.998c-1.235,1.234-1.999,2.941-1.999,4.825c0,1.885,0.764,3.59,1.999,4.825                             c1.234,1.233,2.94,1.999,4.824,1.999c1.884,0,3.59-0.766,4.825-1.999c1.234-1.235,1.998-2.94,1.998-4.825v-0.036V16.15v-0.192                             v-0.002l-0.002-0.03c-0.001-0.047-0.001-0.094,0.002-0.14V2.125c0-0.793,0.644-1.437,1.436-1.437c0.794,0,1.438,0.644,1.438,1.437                             v13.833V16.15L21.19,16.15z"
     class="st1"
     id="logo-d1" /><path
     d="M61.042,16.28v-0.029v-0.036c0-1.884-0.764-3.59-1.999-4.825c-1.234-1.235-2.941-1.998-4.824-1.998                             c-1.884,0-3.59,0.764-4.825,1.998c-1.234,1.234-1.998,2.941-1.998,4.825c0,1.885,0.764,3.59,1.998,4.825                             c1.235,1.233,2.941,1.999,4.825,1.999v0.005l3.473-0.004c0.79,0,1.431,0.642,1.431,1.431c0,0.791-0.641,1.432-1.431,1.432                             l-3.473,0.005v0.006c-2.677,0-5.102-1.086-6.856-2.84c-1.755-1.757-2.841-4.181-2.841-6.857s1.086-5.101,2.841-6.857                             c1.755-1.755,4.18-2.84,6.856-2.84c2.678,0,5.101,1.085,6.856,2.84c1.755,1.755,2.841,4.18,2.841,6.857v0.044l0,0v0.001v0.019v0.192                             v13.833c0,0.795-0.644,1.438-1.438,1.438c-0.793,0-1.436-0.644-1.436-1.438v-13.66c-0.003-0.046-0.003-0.092-0.001-0.139                             l0.001-0.031v-0.003V16.28L61.042,16.28z"
     class="st1"
     id="logo-q" /><path
     d="M123.315,20.865c0.539-0.58,1.446-0.612,2.024-0.072c0.58,0.539,0.613,1.445,0.074,2.025                             c-0.9,0.967-1.998,1.75-3.229,2.287c-1.19,0.52-2.5,0.807-3.867,0.807c-2.677,0-5.103-1.086-6.856-2.84                             c-1.754-1.756-2.84-4.18-2.84-6.857c0-2.677,1.086-5.102,2.84-6.857c1.756-1.755,4.181-2.84,6.856-2.84                             c2.679,0,5.103,1.085,6.856,2.84c1.755,1.755,2.841,4.18,2.841,6.857c0,0.794-0.644,1.438-1.437,1.438h-11.236                             c-0.795,0-1.438-0.644-1.438-1.438s0.643-1.437,1.438-1.437h9.646c-0.279-1.308-0.936-2.476-1.848-3.388                             c-1.234-1.235-2.939-1.998-4.824-1.998c-1.884,0-3.59,0.764-4.824,1.998s-1.998,2.941-1.998,4.825c0,1.885,0.764,3.59,1.998,4.825                             c1.234,1.233,2.94,1.999,4.824,1.999c0.975,0,1.896-0.2,2.723-0.561C121.905,22.102,122.678,21.549,123.315,20.865L123.315,20.865z"
     class="st1"
     id="logo-e2" /><path
     d="M106.651,16.15v0.02l0,0v0.001v0.044c0,2.678-1.085,5.102-2.84,6.857c-1.755,1.754-4.181,2.84-6.856,2.84                             c-2.678,0-5.103-1.086-6.856-2.84c-1.755-1.756-2.841-4.18-2.841-6.857c0-2.677,1.086-5.102,2.841-6.857s4.18-2.84,6.856-2.84v0.005                             l3.473,0.004c0.791,0,1.432,0.641,1.432,1.431s-0.641,1.432-1.432,1.432l-3.473-0.004v0.006c-1.885,0-3.591,0.764-4.824,1.998                             c-1.234,1.234-1.998,2.941-1.998,4.825c0,1.885,0.764,3.59,1.998,4.825c1.234,1.233,2.939,1.999,4.824,1.999s3.59-0.766,4.824-1.999                             c1.234-1.235,1.999-2.94,1.999-4.825v-0.036l-0.001-0.029v-0.192v-0.002l-0.001-0.03c-0.002-0.047-0.001-0.094,0.001-0.14V2.125                             c0-0.793,0.645-1.437,1.438-1.437c0.795,0,1.438,0.644,1.438,1.437v13.833L106.651,16.15L106.651,16.15z"
     class="st1"
     id="logo-d2" /><path
     d="M82.447,9.355c-1.756-1.756-4.181-2.842-6.859-2.842c-2.68,0-5.105,1.086-6.86,2.842                             c-1.756,1.756-2.843,4.182-2.843,6.861s1.087,5.104,2.843,6.861c1.756,1.756,4.181,2.842,6.86,2.842                             c2.678,0,5.104-1.086,6.859-2.842c1.756-1.757,2.842-4.183,2.842-6.861S84.203,11.111,82.447,9.355z M80.416,21.045                             c-1.235,1.234-2.942,1.999-4.828,1.999c-1.887,0-3.594-0.765-4.83-1.999c-1.234-1.236-1.998-2.943-1.998-4.829                             s0.764-3.594,1.998-4.829c1.236-1.236,2.943-2,4.83-2c1.886,0,3.593,0.764,4.828,2c1.235,1.235,2,2.943,2,4.829                             C82.416,18.104,81.651,19.811,80.416,21.045z"
     class="st1"
     id="logo-o" /><circle
     r="2.019"
     cy="23.894"
     cx="129.892"
     class="st0"
     id="logo-dot" /></svg>